<?xml version="1.0" encoding="UTF-8" standalone="no"?>
<svg xmlns="http://www.w3.org/2000/svg"
     xmlns:xlink="http://www.w3.org/1999/xlink"
     width="920px" height="603px" viewBox="0 0 920 603">
<title>Geant4 output</title>
<desc>
Creator: GL2PS 1.3.5, (C) 1999-2009 C. Geuzaine
For: Geant4
CreationDate:
</desc>
<defs>
</defs>
<polygon fill="#000000" points="0,0 920,0 920,603 0,603"/>
<g shape-rendering="crispEdges">
<polygon fill="#0000db" points="676.357,253.95 354.89,198.224 352.355,198.931"/>
<polygon fill="#0000db" points="676.357,253.95 352.355,198.931 673.822,254.656"/>
<polygon fill="#000066" points="676.357,373.758 676.357,253.95 673.822,254.656"/>
<polygon fill="#000066" points="676.357,373.758 673.822,254.656 673.822,374.465"/>
<polygon fill="#000066" points="673.822,374.465 673.822,254.656 352.355,198.931"/>
<polygon fill="#000066" points="673.822,374.465 352.355,198.931 352.355,318.74"/>
<polygon fill="#660000" points="565.923,227.516 565.923,377.276 569.092,376.393"/>
<polygon fill="#660000" points="565.923,227.516 569.092,376.393 569.092,226.632"/>
<polygon fill="#660000" points="573.96,218.925 573.96,228.909 577.128,228.025"/>
<polygon fill="#660000" points="573.96,218.925 577.128,228.025 577.128,218.041"/>
<polygon fill="#db0000" points="445.374,196.634 573.96,218.925 577.128,218.041"/>
<polygon fill="#db0000" points="445.374,196.634 577.128,218.041 448.542,195.751"/>
<polygon fill="#660000" points="565.923,227.516 573.96,228.909 573.96,218.925"/>
<polygon fill="#660000" points="565.923,227.516 573.96,218.925 445.374,196.634"/>
<polygon fill="#660000" points="445.374,196.634 445.374,206.619 453.41,208.012"/>
<polygon fill="#660000" points="565.923,227.516 445.374,196.634 453.41,208.012"/>
<polygon fill="#660000" points="565.923,227.516 453.41,208.012 453.41,357.772"/>
<polygon fill="#660000" points="565.923,227.516 453.41,357.772 565.923,377.276"/>
<polygon fill="#0000db" points="557.633,96.4004 461.193,79.6826 458.659,80.3892"/>
<polygon fill="#0000db" points="557.633,96.4004 458.659,80.3892 555.099,97.1069"/>
<polygon fill="#000066" points="557.633,495.763 557.633,96.4004 555.099,97.1069"/>
<polygon fill="#000066" points="557.633,495.763 555.099,97.1069 555.099,496.47"/>
<polygon fill="#000066" points="555.099,496.47 555.099,97.1069 458.659,80.3892"/>
<polygon fill="#000066" points="555.099,496.47 458.659,80.3892 458.659,479.752"/>
<polygon fill="#660000" points="559.713,229.247 559.713,379.008 562.882,378.125"/>
<polygon fill="#660000" points="559.713,229.247 562.882,378.125 562.882,228.364"/>
<polygon fill="#db0000" points="439.164,198.366 567.75,220.656 570.918,219.773"/>
<polygon fill="#db0000" points="439.164,198.366 570.918,219.773 442.332,197.482"/>
<polygon fill="#660000" points="567.75,220.656 567.75,230.64 570.918,229.757"/>
<polygon fill="#660000" points="567.75,220.656 570.918,229.757 570.918,219.773"/>
<polygon fill="#660000" points="559.713,229.247 567.75,230.64 567.75,220.656"/>
<polygon fill="#660000" points="559.713,229.247 567.75,220.656 439.164,198.366"/>
<polygon fill="#660000" points="439.164,198.366 439.164,208.35 447.2,209.743"/>
<polygon fill="#660000" points="559.713,229.247 439.164,198.366 447.2,209.743"/>
<polygon fill="#660000" points="559.713,229.247 447.2,209.743 447.2,359.504"/>
<polygon fill="#660000" points="559.713,229.247 447.2,359.504 559.713,379.008"/>
<polygon fill="#0000db" points="663.937,257.413 342.47,201.687 339.935,202.394"/>
<polygon fill="#0000db" points="663.937,257.413 339.935,202.394 661.402,258.119"/>
<polygon fill="#000066" points="663.937,377.221 663.937,257.413 661.402,258.119"/>
<polygon fill="#000066" points="663.937,377.221 661.402,258.119 661.402,377.928"/>
<polygon fill="#000066" points="661.402,377.928 661.402,258.119 339.935,202.394"/>
<polygon fill="#000066" points="661.402,377.928 339.935,202.394 339.935,322.203"/>
<polygon fill="#660000" points="553.503,230.979 553.503,380.739 556.672,379.856"/>
<polygon fill="#660000" points="553.503,230.979 556.672,379.856 556.672,230.095"/>
<polygon fill="#660000" points="561.54,222.388 561.54,232.372 564.708,231.488"/>
<polygon fill="#660000" points="561.54,222.388 564.708,231.488 564.708,221.504"/>
<polygon fill="#db0000" points="432.953,200.097 561.54,222.388 564.708,221.504"/>
<polygon fill="#db0000" points="432.953,200.097 564.708,221.504 436.122,199.214"/>
<polygon fill="#660000" points="553.503,230.979 561.54,232.372 561.54,222.388"/>
<polygon fill="#660000" points="553.503,230.979 561.54,222.388 432.953,200.097"/>
<polygon fill="#660000" points="432.953,200.097 432.953,210.082 440.99,211.475"/>
<polygon fill="#660000" points="553.503,230.979 432.953,200.097 440.99,211.475"/>
<polygon fill="#660000" points="553.503,230.979 440.99,211.475 440.99,361.235"/>
<polygon fill="#660000" points="553.503,230.979 440.99,361.235 553.503,380.739"/>
<polygon fill="#0000db" points="545.213,99.8633 448.773,83.1455 446.238,83.8525"/>
<polygon fill="#0000db" points="545.213,99.8633 446.238,83.8525 542.678,100.57"/>
<polygon fill="#000066" points="545.213,499.226 545.213,99.8633 542.678,100.57"/>
<polygon fill="#000066" points="545.213,499.226 542.678,100.57 542.678,499.933"/>
<polygon fill="#000066" points="542.678,499.933 542.678,100.57 446.238,83.8525"/>
<polygon fill="#000066" points="542.678,499.933 446.238,83.8525 446.238,483.215"/>
<polygon fill="#660000" points="547.293,232.71 547.293,382.471 550.461,381.587"/>
<polygon fill="#660000" points="547.293,232.71 550.461,381.587 550.461,231.827"/>
<polygon fill="#db0000" points="426.743,201.829 555.33,224.119 558.498,223.236"/>
<polygon fill="#db0000" points="426.743,201.829 558.498,223.236 429.912,200.945"/>
<polygon fill="#660000" points="555.33,224.119 555.33,234.103 558.498,233.22"/>
<polygon fill="#660000" points="555.33,224.119 558.498,233.22 558.498,223.236"/>
<polygon fill="#660000" points="547.293,232.71 555.33,234.103 555.33,224.119"/>
<polygon fill="#660000" points="547.293,232.71 555.33,224.119 426.743,201.829"/>
<polygon fill="#660000" points="426.743,201.829 426.743,211.813 434.78,213.206"/>
<polygon fill="#660000" points="547.293,232.71 426.743,201.829 434.78,213.206"/>
<polygon fill="#660000" points="547.293,232.71 434.78,213.206 434.78,362.967"/>
<polygon fill="#660000" points="547.293,232.71 434.78,362.967 547.293,382.471"/>
<polygon fill="#0000db" points="651.516,260.875 330.05,205.15 327.515,205.857"/>
<polygon fill="#0000db" points="651.516,260.875 327.515,205.857 648.981,261.583"/>
<polygon fill="#000066" points="651.516,380.685 651.516,260.875 648.981,261.583"/>
<polygon fill="#000066" points="651.516,380.685 648.981,261.583 648.981,381.391"/>
<polygon fill="#000066" points="648.981,381.391 648.981,261.583 327.515,205.857"/>
<polygon fill="#000066" points="648.981,381.391 327.515,205.857 327.515,325.666"/>
<polygon fill="#660000" points="541.083,234.441 541.083,384.203 544.251,383.319"/>
<polygon fill="#660000" points="541.083,234.441 544.251,383.319 544.251,233.558"/>
<polygon fill="#660000" points="549.12,225.851 549.12,235.834 552.288,234.951"/>
<polygon fill="#660000" points="549.12,225.851 552.288,234.951 552.288,224.967"/>
<polygon fill="#db0000" points="420.533,203.561 549.12,225.851 552.288,224.967"/>
<polygon fill="#db0000" points="420.533,203.561 552.288,224.967 423.701,202.677"/>
<polygon fill="#660000" points="541.083,234.441 549.12,235.834 549.12,225.851"/>
<polygon fill="#660000" points="541.083,234.441 549.12,225.851 420.533,203.561"/>
<polygon fill="#660000" points="420.533,203.561 420.533,213.544 428.57,214.938"/>
<polygon fill="#660000" points="541.083,234.441 420.533,203.561 428.57,214.938"/>
<polygon fill="#660000" points="541.083,234.441 428.57,214.938 428.57,364.699"/>
<polygon fill="#660000" points="541.083,234.441 428.57,364.699 541.083,384.203"/>
<polygon fill="#0000db" points="532.793,103.326 436.353,86.6084 433.818,87.3154"/>
<polygon fill="#0000db" points="532.793,103.326 433.818,87.3154 530.258,104.033"/>
<polygon fill="#000066" points="532.793,502.689 532.793,103.326 530.258,104.033"/>
<polygon fill="#000066" points="532.793,502.689 530.258,104.033 530.258,503.396"/>
<polygon fill="#000066" points="530.258,503.396 530.258,104.033 433.818,87.3154"/>
<polygon fill="#000066" points="530.258,503.396 433.818,87.3154 433.818,486.678"/>
<polygon fill="#660000" points="534.873,236.173 534.873,385.934 538.041,385.051"/>
<polygon fill="#660000" points="534.873,236.173 538.041,385.051 538.041,235.29"/>
<polygon fill="#db0000" points="414.323,205.292 542.91,227.582 546.078,226.699"/>
<polygon fill="#db0000" points="414.323,205.292 546.078,226.699 417.491,204.409"/>
<polygon fill="#660000" points="542.91,227.582 542.91,237.566 546.078,236.683"/>
<polygon fill="#660000" points="542.91,227.582 546.078,236.683 546.078,226.699"/>
<polygon fill="#660000" points="534.873,236.173 542.91,237.566 542.91,227.582"/>
<polygon fill="#660000" points="534.873,236.173 542.91,227.582 414.323,205.292"/>
<polygon fill="#660000" points="414.323,205.292 414.323,215.276 422.359,216.669"/>
<polygon fill="#660000" points="534.873,236.173 414.323,205.292 422.359,216.669"/>
<polygon fill="#660000" points="534.873,236.173 422.359,216.669 422.359,366.43"/>
<polygon fill="#660000" points="534.873,236.173 422.359,366.43 534.873,385.934"/>
<polygon fill="#0000db" points="639.096,264.338 317.629,208.613 315.095,209.32"/>
<polygon fill="#0000db" points="639.096,264.338 315.095,209.32 636.562,265.045"/>
<polygon fill="#000066" points="639.096,384.147 639.096,264.338 636.562,265.045"/>
<polygon fill="#000066" points="639.096,384.147 636.562,265.045 636.562,384.854"/>
<polygon fill="#000066" points="636.562,384.854 636.562,265.045 315.095,209.32"/>
<polygon fill="#000066" points="636.562,384.854 315.095,209.32 315.095,329.128"/>
<polygon fill="#660000" points="528.663,237.904 528.663,387.666 531.831,386.782"/>
<polygon fill="#660000" points="528.663,237.904 531.831,386.782 531.831,237.021"/>
<polygon fill="#660000" points="536.699,229.313 536.699,239.298 539.868,238.414"/>
<polygon fill="#660000" points="536.699,229.313 539.868,238.414 539.868,228.43"/>
<polygon fill="#db0000" points="408.113,207.023 536.699,229.313 539.868,228.43"/>
<polygon fill="#db0000" points="408.113,207.023 539.868,228.43 411.281,206.14"/>
<polygon fill="#660000" points="528.663,237.904 536.699,239.298 536.699,229.313"/>
<polygon fill="#660000" points="528.663,237.904 536.699,229.313 408.113,207.023"/>
<polygon fill="#660000" points="408.113,207.023 408.113,217.007 416.149,218.4"/>
<polygon fill="#660000" points="528.663,237.904 408.113,207.023 416.149,218.4"/>
<polygon fill="#660000" points="528.663,237.904 416.149,218.4 416.149,368.162"/>
<polygon fill="#660000" points="528.663,237.904 416.149,368.162 528.663,387.666"/>
<polygon fill="#0000db" points="520.373,106.789 423.933,90.0718 421.398,90.7783"/>
<polygon fill="#0000db" points="520.373,106.789 421.398,90.7783 517.838,107.496"/>
<polygon fill="#000066" points="520.373,506.152 520.373,106.789 517.838,107.496"/>
<polygon fill="#000066" points="520.373,506.152 517.838,107.496 517.838,506.858"/>
<polygon fill="#000066" points="517.838,506.858 517.838,107.496 421.398,90.7783"/>
<polygon fill="#000066" points="517.838,506.858 421.398,90.7783 421.398,490.141"/>
<polygon fill="#660000" points="522.453,239.636 522.453,389.397 525.621,388.514"/>
<polygon fill="#660000" points="522.453,239.636 525.621,388.514 525.621,238.752"/>
<polygon fill="#db0000" points="401.902,208.755 530.489,231.045 533.658,230.162"/>
<polygon fill="#db0000" points="401.902,208.755 533.658,230.162 405.071,207.872"/>
<polygon fill="#660000" points="530.489,231.045 530.489,241.029 533.658,240.146"/>
<polygon fill="#660000" points="530.489,231.045 533.658,240.146 533.658,230.162"/>
<polygon fill="#660000" points="522.453,239.636 530.489,241.029 530.489,231.045"/>
<polygon fill="#660000" points="522.453,239.636 530.489,231.045 401.902,208.755"/>
<polygon fill="#660000" points="401.902,208.755 401.902,218.739 409.939,220.132"/>
<polygon fill="#660000" points="522.453,239.636 401.902,208.755 409.939,220.132"/>
<polygon fill="#660000" points="522.453,239.636 409.939,220.132 409.939,369.893"/>
<polygon fill="#660000" points="522.453,239.636 409.939,369.893 522.453,389.397"/>
<polygon fill="#0000db" points="626.676,267.802 305.209,212.076 302.674,212.783"/>
<polygon fill="#0000db" points="626.676,267.802 302.674,212.783 624.141,268.508"/>
<polygon fill="#000066" points="626.676,387.61 626.676,267.802 624.141,268.508"/>
<polygon fill="#000066" points="626.676,387.61 624.141,268.508 624.141,388.317"/>
<polygon fill="#000066" points="624.141,388.317 624.141,268.508 302.674,212.783"/>
<polygon fill="#000066" points="624.141,388.317 302.674,212.783 302.674,332.591"/>
<polygon fill="#660000" points="516.242,241.368 516.242,391.128 519.411,390.245"/>
<polygon fill="#660000" points="516.242,241.368 519.411,390.245 519.411,240.484"/>
<polygon fill="#660000" points="524.279,232.776 524.279,242.761 527.447,241.877"/>
<polygon fill="#660000" points="524.279,232.776 527.447,241.877 527.447,231.893"/>
<polygon fill="#db0000" points="395.692,210.486 524.279,232.776 527.447,231.893"/>
<polygon fill="#db0000" points="395.692,210.486 527.447,231.893 398.861,209.603"/>
<polygon fill="#660000" points="516.242,241.368 403.729,221.864 403.729,371.625"/>
<polygon fill="#660000" points="516.242,241.368 403.729,371.625 516.242,391.128"/>
<polygon fill="#660000" points="516.242,241.368 524.279,232.776 395.692,210.486"/>
<polygon fill="#660000" points="395.692,210.486 395.692,220.47 403.729,221.864"/>
<polygon fill="#660000" points="516.242,241.368 395.692,210.486 403.729,221.864"/>
<polygon fill="#660000" points="516.242,241.368 524.279,242.761 524.279,232.776"/>
<polygon fill="#0000db" points="507.952,110.252 411.512,93.5347 408.978,94.2412"/>
<polygon fill="#0000db" points="507.952,110.252 408.978,94.2412 505.417,110.959"/>
<polygon fill="#000066" points="507.952,509.615 507.952,110.252 505.417,110.959"/>
<polygon fill="#000066" points="507.952,509.615 505.417,110.959 505.417,510.321"/>
<polygon fill="#000066" points="505.417,510.321 505.417,110.959 408.978,94.2412"/>
<polygon fill="#000066" points="505.417,510.321 408.978,94.2412 408.978,493.604"/>
<polygon fill="#660000" points="510.032,243.099 510.032,392.86 513.201,391.977"/>
<polygon fill="#660000" points="510.032,243.099 513.201,391.977 513.201,242.216"/>
<polygon fill="#db0000" points="389.482,212.218 518.069,234.508 521.237,233.625"/>
<polygon fill="#db0000" points="389.482,212.218 521.237,233.625 392.651,211.334"/>
<polygon fill="#660000" points="518.069,234.508 518.069,244.492 521.237,243.609"/>
<polygon fill="#660000" points="518.069,234.508 521.237,243.609 521.237,233.625"/>
<polygon fill="#660000" points="510.032,243.099 518.069,244.492 518.069,234.508"/>
<polygon fill="#660000" points="510.032,243.099 518.069,234.508 389.482,212.218"/>
<polygon fill="#660000" points="389.482,212.218 389.482,222.202 397.519,223.595"/>
<polygon fill="#660000" points="510.032,243.099 389.482,212.218 397.519,223.595"/>
<polygon fill="#660000" points="510.032,243.099 397.519,223.595 397.519,373.356"/>
<polygon fill="#660000" points="510.032,243.099 397.519,373.356 510.032,392.86"/>
<polygon fill="#00db00" points="614.255,291.233 292.789,235.507 290.254,236.214"/>
<polygon fill="#00db00" points="614.255,291.233 290.254,236.214 611.721,291.939"/>
<polygon fill="#006600" points="614.255,371.105 614.255,291.233 611.721,291.939"/>
<polygon fill="#006600" points="614.255,371.105 611.721,291.939 611.721,371.812"/>
<polygon fill="#006600" points="611.721,371.812 611.721,291.939 290.254,236.214"/>
<polygon fill="#006600" points="611.721,371.812 290.254,236.214 290.254,316.086"/>
<polygon fill="#660000" points="503.822,244.831 503.822,394.591 506.991,393.708"/>
<polygon fill="#660000" points="503.822,244.831 506.991,393.708 506.991,243.947"/>
<polygon fill="#660000" points="511.859,236.24 511.859,246.224 515.027,245.34"/>
<polygon fill="#660000" points="511.859,236.24 515.027,245.34 515.027,235.356"/>
<polygon fill="#db0000" points="383.272,213.949 511.859,236.24 515.027,235.356"/>
<polygon fill="#db0000" points="383.272,213.949 515.027,235.356 386.44,213.066"/>
<polygon fill="#660000" points="503.822,244.831 511.859,246.224 511.859,236.24"/>
<polygon fill="#660000" points="503.822,244.831 511.859,236.24 383.272,213.949"/>
<polygon fill="#660000" points="383.272,213.949 383.272,223.934 391.309,225.327"/>
<polygon fill="#660000" points="503.822,244.831 383.272,213.949 391.309,225.327"/>
<polygon fill="#660000" points="503.822,244.831 391.309,225.327 391.309,375.087"/>
<polygon fill="#660000" points="503.822,244.831 391.309,375.087 503.822,394.591"/>
<polygon fill="#00db00" points="479.458,110.929 415.165,99.7837 412.63,100.491"/>
<polygon fill="#00db00" points="479.458,110.929 412.63,100.491 476.924,111.636"/>
<polygon fill="#006600" points="479.458,510.292 479.458,110.929 476.924,111.636"/>
<polygon fill="#006600" points="479.458,510.292 476.924,111.636 476.924,510.998"/>
<polygon fill="#006600" points="476.924,510.998 476.924,111.636 412.63,100.491"/>
<polygon fill="#006600" points="476.924,510.998 412.63,100.491 412.63,499.853"/>
<polygon fill="#660000" points="497.612,246.562 497.612,396.323 500.78,395.439"/>
<polygon fill="#660000" points="497.612,246.562 500.78,395.439 500.78,245.679"/>
<polygon fill="#db0000" points="377.062,215.681 505.648,237.971 508.817,237.088"/>
<polygon fill="#db0000" points="377.062,215.681 508.817,237.088 380.23,214.797"/>
<polygon fill="#660000" points="505.648,237.971 505.648,247.955 508.817,247.072"/>
<polygon fill="#660000" points="505.648,237.971 508.817,247.072 508.817,237.088"/>
<polygon fill="#660000" points="497.612,246.562 505.648,247.955 505.648,237.971"/>
<polygon fill="#660000" points="497.612,246.562 505.648,237.971 377.062,215.681"/>
<polygon fill="#660000" points="377.062,215.681 377.062,225.665 385.099,227.058"/>
<polygon fill="#660000" points="497.612,246.562 377.062,215.681 385.099,227.058"/>
<polygon fill="#660000" points="497.612,246.562 385.099,227.058 385.099,376.819"/>
<polygon fill="#660000" points="497.612,246.562 385.099,376.819 497.612,396.323"/>
<polygon fill="#00db00" points="601.835,294.696 280.369,238.97 277.833,239.677"/>
<polygon fill="#00db00" points="601.835,294.696 277.833,239.677 599.3,295.402"/>
<polygon fill="#006600" points="601.835,374.568 601.835,294.696 599.3,295.402"/>
<polygon fill="#006600" points="601.835,374.568 599.3,295.402 599.3,375.275"/>
<polygon fill="#006600" points="599.3,375.275 599.3,295.402 277.833,239.677"/>
<polygon fill="#006600" points="599.3,375.275 277.833,239.677 277.833,319.549"/>
<polygon fill="#660000" points="491.402,248.293 491.402,398.054 494.57,397.171"/>
<polygon fill="#660000" points="491.402,248.293 494.57,397.171 494.57,247.41"/>
<polygon fill="#660000" points="499.438,239.703 499.438,249.687 502.607,248.803"/>
<polygon fill="#660000" points="499.438,239.703 502.607,248.803 502.607,238.819"/>
<polygon fill="#db0000" points="370.852,217.412 499.438,239.703 502.607,238.819"/>
<polygon fill="#db0000" points="370.852,217.412 502.607,238.819 374.02,216.529"/>
<polygon fill="#660000" points="491.402,248.293 499.438,249.687 499.438,239.703"/>
<polygon fill="#660000" points="491.402,248.293 499.438,239.703 370.852,217.412"/>
<polygon fill="#660000" points="370.852,217.412 370.852,227.396 378.889,228.79"/>
<polygon fill="#660000" points="491.402,248.293 370.852,217.412 378.889,228.79"/>
<polygon fill="#660000" points="491.402,248.293 378.889,228.79 378.889,378.55"/>
<polygon fill="#660000" points="491.402,248.293 378.889,378.55 491.402,398.054"/>
<polygon fill="#00db00" points="467.039,114.392 402.745,103.247 400.21,103.954"/>
<polygon fill="#00db00" points="467.039,114.392 400.21,103.954 464.503,115.099"/>
<polygon fill="#006600" points="467.039,513.754 467.039,114.392 464.503,115.099"/>
<polygon fill="#006600" points="467.039,513.754 464.503,115.099 464.503,514.461"/>
<polygon fill="#006600" points="464.503,514.461 464.503,115.099 400.21,103.954"/>
<polygon fill="#006600" points="464.503,514.461 400.21,103.954 400.21,503.316"/>
<polygon fill="#660000" points="485.192,250.025 485.192,399.786 488.36,398.902"/>
<polygon fill="#660000" points="485.192,250.025 488.36,398.902 488.36,249.142"/>
<polygon fill="#db0000" points="364.642,219.144 493.229,241.434 496.397,240.551"/>
<polygon fill="#db0000" points="364.642,219.144 496.397,240.551 367.81,218.26"/>
<polygon fill="#660000" points="493.229,241.434 493.229,251.418 496.397,250.535"/>
<polygon fill="#660000" points="493.229,241.434 496.397,250.535 496.397,240.551"/>
<polygon fill="#660000" points="485.192,250.025 493.229,251.418 493.229,241.434"/>
<polygon fill="#660000" points="485.192,250.025 493.229,241.434 364.642,219.144"/>
<polygon fill="#660000" points="364.642,219.144 364.642,229.128 372.678,230.521"/>
<polygon fill="#660000" points="485.192,250.025 364.642,219.144 372.678,230.521"/>
<polygon fill="#660000" points="485.192,250.025 372.678,230.521 372.678,380.282"/>
<polygon fill="#660000" points="485.192,250.025 372.678,380.282 485.192,399.786"/>
<polygon fill="#00db00" points="589.415,298.159 267.948,242.433 265.414,243.14"/>
<polygon fill="#00db00" points="589.415,298.159 265.414,243.14 586.88,298.865"/>
<polygon fill="#006600" points="589.415,378.031 589.415,298.159 586.88,298.865"/>
<polygon fill="#006600" points="589.415,378.031 586.88,298.865 586.88,378.738"/>
<polygon fill="#006600" points="586.88,378.738 586.88,298.865 265.414,243.14"/>
<polygon fill="#006600" points="586.88,378.738 265.414,243.14 265.414,323.012"/>
<polygon fill="#660000" points="478.981,251.756 478.981,401.518 482.15,400.634"/>
<polygon fill="#660000" points="478.981,251.756 482.15,400.634 482.15,250.873"/>
<polygon fill="#660000" points="487.018,243.166 487.018,253.149 490.187,252.266"/>
<polygon fill="#660000" points="487.018,243.166 490.187,252.266 490.187,242.282"/>
<polygon fill="#db0000" points="358.432,220.875 487.018,243.166 490.187,242.282"/>
<polygon fill="#db0000" points="358.432,220.875 490.187,242.282 361.6,219.992"/>
<polygon fill="#660000" points="478.981,251.756 487.018,253.149 487.018,243.166"/>
<polygon fill="#660000" points="478.981,251.756 487.018,243.166 358.432,220.875"/>
<polygon fill="#660000" points="358.432,220.875 358.432,230.859 366.468,232.252"/>
<polygon fill="#660000" points="478.981,251.756 358.432,220.875 366.468,232.252"/>
<polygon fill="#660000" points="478.981,251.756 366.468,232.252 366.468,382.014"/>
<polygon fill="#660000" points="478.981,251.756 366.468,382.014 478.981,401.518"/>
<polygon fill="#00db00" points="454.618,117.855 390.325,106.71 387.79,107.417"/>
<polygon fill="#00db00" points="454.618,117.855 387.79,107.417 452.083,118.562"/>
<polygon fill="#006600" points="454.618,517.217 454.618,117.855 452.083,118.562"/>
<polygon fill="#006600" points="454.618,517.217 452.083,118.562 452.083,517.924"/>
<polygon fill="#006600" points="452.083,517.924 452.083,118.562 387.79,107.417"/>
<polygon fill="#006600" points="452.083,517.924 387.79,107.417 387.79,506.779"/>
<polygon fill="#660000" points="472.771,253.488 472.771,403.249 475.94,402.366"/>
<polygon fill="#660000" points="472.771,253.488 475.94,402.366 475.94,252.604"/>
<polygon fill="#db0000" points="352.221,222.607 480.808,244.897 483.977,244.014"/>
<polygon fill="#db0000" points="352.221,222.607 483.977,244.014 355.39,221.724"/>
<polygon fill="#660000" points="480.808,244.897 480.808,254.881 483.977,253.998"/>
<polygon fill="#660000" points="480.808,244.897 483.977,253.998 483.977,244.014"/>
<polygon fill="#660000" points="472.771,253.488 480.808,254.881 480.808,244.897"/>
<polygon fill="#660000" points="472.771,253.488 480.808,244.897 352.221,222.607"/>
<polygon fill="#660000" points="352.221,222.607 352.221,232.591 360.258,233.984"/>
<polygon fill="#660000" points="472.771,253.488 352.221,222.607 360.258,233.984"/>
<polygon fill="#660000" points="472.771,253.488 360.258,233.984 360.258,383.745"/>
<polygon fill="#660000" points="472.771,253.488 360.258,383.745 472.771,403.249"/>
<polygon fill="#00db00" points="576.995,301.622 255.528,245.896 252.993,246.603"/>
<polygon fill="#00db00" points="576.995,301.622 252.993,246.603 574.46,302.329"/>
<polygon fill="#006600" points="576.995,381.494 576.995,301.622 574.46,302.329"/>
<polygon fill="#006600" points="576.995,381.494 574.46,302.329 574.46,382.201"/>
<polygon fill="#006600" points="574.46,382.201 574.46,302.329 252.993,246.603"/>
<polygon fill="#006600" points="574.46,382.201 252.993,246.603 252.993,326.475"/>
<polygon fill="#660000" points="466.561,255.219 466.561,404.98 469.729,404.097"/>
<polygon fill="#660000" points="466.561,255.219 469.729,404.097 469.729,254.336"/>
<polygon fill="#660000" points="474.598,246.628 474.598,256.613 477.767,255.729"/>
<polygon fill="#660000" points="474.598,246.628 477.767,255.729 477.767,245.745"/>
<polygon fill="#db0000" points="346.011,224.338 474.598,246.628 477.767,245.745"/>
<polygon fill="#db0000" points="346.011,224.338 477.767,245.745 349.18,223.455"/>
<polygon fill="#660000" points="466.561,255.219 354.048,235.715 354.048,385.477"/>
<polygon fill="#660000" points="466.561,255.219 354.048,385.477 466.561,404.98"/>
<polygon fill="#660000" points="466.561,255.219 474.598,256.613 474.598,246.628"/>
<polygon fill="#660000" points="466.561,255.219 474.598,246.628 346.011,224.338"/>
<polygon fill="#660000" points="346.011,224.338 346.011,234.322 354.048,235.715"/>
<polygon fill="#660000" points="466.561,255.219 346.011,224.338 354.048,235.715"/>
<polygon fill="#00db00" points="442.198,121.318 377.904,110.173 375.37,110.879"/>
<polygon fill="#00db00" points="442.198,121.318 375.37,110.879 439.663,122.024"/>
<polygon fill="#006600" points="442.198,520.681 442.198,121.318 439.663,122.024"/>
<polygon fill="#006600" points="442.198,520.681 439.663,122.024 439.663,521.387"/>
<polygon fill="#006600" points="439.663,521.387 439.663,122.024 375.37,110.879"/>
<polygon fill="#006600" points="439.663,521.387 375.37,110.879 375.37,510.242"/>
<polygon fill="#660000" points="460.351,256.951 460.351,406.712 463.52,405.829"/>
<polygon fill="#660000" points="460.351,256.951 463.52,405.829 463.52,256.067"/>
<polygon fill="#db0000" points="339.801,226.07 468.388,248.36 471.556,247.477"/>
<polygon fill="#db0000" points="339.801,226.07 471.556,247.477 342.97,225.187"/>
<polygon fill="#660000" points="468.388,248.36 468.388,258.344 471.556,257.46"/>
<polygon fill="#660000" points="468.388,248.36 471.556,257.46 471.556,247.477"/>
<polygon fill="#660000" points="460.351,256.951 468.388,258.344 468.388,248.36"/>
<polygon fill="#660000" points="460.351,256.951 468.388,248.36 339.801,226.07"/>
<polygon fill="#660000" points="339.801,226.07 339.801,236.054 347.838,237.447"/>
<polygon fill="#660000" points="460.351,256.951 339.801,226.07 347.838,237.447"/>
<polygon fill="#660000" points="460.351,256.951 347.838,237.447 347.838,387.208"/>
<polygon fill="#660000" points="460.351,256.951 347.838,387.208 460.351,406.712"/>
<polygon fill="#00db00" points="564.574,305.084 243.107,249.359 240.573,250.066"/>
<polygon fill="#00db00" points="564.574,305.084 240.573,250.066 562.04,305.792"/>
<polygon fill="#006600" points="564.574,384.957 564.574,305.084 562.04,305.792"/>
<polygon fill="#006600" points="564.574,384.957 562.04,305.792 562.04,385.664"/>
<polygon fill="#006600" points="562.04,385.664 562.04,305.792 240.573,250.066"/>
<polygon fill="#006600" points="562.04,385.664 240.573,250.066 240.573,329.938"/>
<polygon fill="#660000" points="454.141,258.683 454.141,408.443 457.31,407.56"/>
<polygon fill="#660000" points="454.141,258.683 457.31,407.56 457.31,257.799"/>
<polygon fill="#660000" points="462.178,250.091 462.178,260.076 465.346,259.192"/>
<polygon fill="#660000" points="462.178,250.091 465.346,259.192 465.346,249.208"/>
<polygon fill="#db0000" points="333.591,227.801 462.178,250.091 465.346,249.208"/>
<polygon fill="#db0000" points="333.591,227.801 465.346,249.208 336.759,226.918"/>
<polygon fill="#660000" points="454.141,258.683 462.178,260.076 462.178,250.091"/>
<polygon fill="#660000" points="454.141,258.683 462.178,250.091 333.591,227.801"/>
<polygon fill="#660000" points="333.591,227.801 333.591,237.785 341.627,239.179"/>
<polygon fill="#660000" points="454.141,258.683 333.591,227.801 341.627,239.179"/>
<polygon fill="#660000" points="454.141,258.683 341.627,239.179 341.627,388.939"/>
<polygon fill="#660000" points="454.141,258.683 341.627,388.939 454.141,408.443"/>
</g>
</svg>
