<?xml version="1.0" encoding="UTF-8" standalone="no"?>
<svg xmlns="http://www.w3.org/2000/svg"
     xmlns:xlink="http://www.w3.org/1999/xlink"
     width="920px" height="603px" viewBox="0 0 920 603">
<title>Geant4 output</title>
<desc>
Creator: GL2PS 1.3.5, (C) 1999-2009 C. Geuzaine
For: Geant4
CreationDate:
</desc>
<defs>
</defs>
<polygon fill="#000000" points="0,0 920,0 920,603 0,603"/>
<g shape-rendering="crispEdges">
<polygon fill="#0000db" points="669.908,251.549 454.101,214.139 445.593,216.512"/>
<polygon fill="#0000db" points="669.908,251.549 445.593,216.512 661.4,253.921"/>
<polygon fill="#000066" points="669.908,331.979 669.908,251.549 661.4,253.921"/>
<polygon fill="#000066" points="669.908,331.979 661.4,253.921 661.4,334.352"/>
<polygon fill="#000066" points="661.4,334.352 661.4,253.921 445.593,216.512"/>
<polygon fill="#000066" points="661.4,334.352 445.593,216.512 445.593,296.942"/>
<polygon fill="#660000" points="588.965,235.701 588.965,336.239 591.092,335.646"/>
<polygon fill="#660000" points="588.965,235.701 591.092,335.646 591.092,235.108"/>
<polygon fill="#660000" points="594.361,229.934 594.361,236.636 596.488,236.043"/>
<polygon fill="#660000" points="594.361,229.934 596.488,236.043 596.488,229.341"/>
<polygon fill="#db0000" points="508.038,214.97 594.361,229.934 596.488,229.341"/>
<polygon fill="#db0000" points="508.038,214.97 596.488,229.341 510.165,214.377"/>
<polygon fill="#660000" points="588.965,235.701 594.361,229.934 508.038,214.97"/>
<polygon fill="#660000" points="508.038,214.97 508.038,221.672 513.433,222.608"/>
<polygon fill="#660000" points="588.965,235.701 508.038,214.97 513.433,222.608"/>
<polygon fill="#660000" points="588.965,235.701 594.361,236.636 594.361,229.934"/>
<polygon fill="#660000" points="588.965,235.701 513.433,222.608 513.433,323.146"/>
<polygon fill="#660000" points="588.965,235.701 513.433,323.146 588.965,336.239"/>
<polygon fill="#db00db" points="583.4,147.681 518.658,136.458 510.149,138.83"/>
<polygon fill="#db00db" points="583.4,147.681 510.149,138.83 574.892,150.053"/>
<polygon fill="#660066" points="583.4,415.781 583.4,147.681 574.892,150.053"/>
<polygon fill="#660066" points="583.4,415.781 574.892,150.053 574.892,418.154"/>
<polygon fill="#660066" points="574.892,418.154 574.892,150.053 510.149,138.83"/>
<polygon fill="#660066" points="574.892,418.154 510.149,138.83 510.149,406.931"/>
<polygon fill="#660000" points="577.99,238.761 577.99,339.299 580.117,338.706"/>
<polygon fill="#660000" points="577.99,238.761 580.117,338.706 580.117,238.168"/>
<polygon fill="#db0000" points="497.062,218.03 583.385,232.994 585.512,232.401"/>
<polygon fill="#db0000" points="497.062,218.03 585.512,232.401 499.189,217.437"/>
<polygon fill="#660000" points="583.385,232.994 583.385,239.697 585.512,239.104"/>
<polygon fill="#660000" points="583.385,232.994 585.512,239.104 585.512,232.401"/>
<polygon fill="#660000" points="577.99,238.761 583.385,239.697 583.385,232.994"/>
<polygon fill="#660000" points="577.99,238.761 583.385,232.994 497.062,218.03"/>
<polygon fill="#660000" points="497.062,218.03 497.062,224.733 502.457,225.668"/>
<polygon fill="#660000" points="577.99,238.761 497.062,218.03 502.457,225.668"/>
<polygon fill="#660000" points="577.99,238.761 502.457,225.668 502.457,326.206"/>
<polygon fill="#660000" points="577.99,238.761 502.457,326.206 577.99,339.299"/>
<polygon fill="#0000db" points="647.957,257.669 432.149,220.26 423.642,222.632"/>
<polygon fill="#0000db" points="647.957,257.669 423.642,222.632 639.449,260.042"/>
<polygon fill="#000066" points="647.957,338.1 647.957,257.669 639.449,260.042"/>
<polygon fill="#000066" points="647.957,338.1 639.449,260.042 639.449,340.472"/>
<polygon fill="#000066" points="639.449,340.472 639.449,260.042 423.642,222.632"/>
<polygon fill="#000066" points="639.449,340.472 423.642,222.632 423.642,303.062"/>
<polygon fill="#660000" points="567.014,241.821 567.014,342.359 569.142,341.766"/>
<polygon fill="#660000" points="567.014,241.821 569.142,341.766 569.142,241.229"/>
<polygon fill="#660000" points="572.41,236.054 572.41,242.757 574.537,242.164"/>
<polygon fill="#660000" points="572.41,236.054 574.537,242.164 574.537,235.461"/>
<polygon fill="#db0000" points="486.086,221.09 572.41,236.054 574.537,235.461"/>
<polygon fill="#db0000" points="486.086,221.09 574.537,235.461 488.213,220.497"/>
<polygon fill="#660000" points="567.014,241.821 572.41,242.757 572.41,236.054"/>
<polygon fill="#660000" points="567.014,241.821 572.41,236.054 486.086,221.09"/>
<polygon fill="#660000" points="486.086,221.09 486.086,227.793 491.482,228.728"/>
<polygon fill="#660000" points="567.014,241.821 486.086,221.09 491.482,228.728"/>
<polygon fill="#660000" points="567.014,241.821 491.482,228.728 491.482,329.266"/>
<polygon fill="#660000" points="567.014,241.821 491.482,329.266 567.014,342.359"/>
<polygon fill="#db00db" points="561.449,153.801 496.707,142.578 488.199,144.95"/>
<polygon fill="#db00db" points="561.449,153.801 488.199,144.95 552.941,156.173"/>
<polygon fill="#660066" points="561.449,421.902 561.449,153.801 552.941,156.173"/>
<polygon fill="#660066" points="561.449,421.902 552.941,156.173 552.941,424.274"/>
<polygon fill="#660066" points="552.941,424.274 552.941,156.173 488.199,144.95"/>
<polygon fill="#660066" points="552.941,424.274 488.199,144.95 488.199,413.051"/>
<polygon fill="#660000" points="556.039,244.882 556.039,345.419 558.166,344.826"/>
<polygon fill="#660000" points="556.039,244.882 558.166,344.826 558.166,244.289"/>
<polygon fill="#db0000" points="475.111,224.15 561.434,239.114 563.561,238.521"/>
<polygon fill="#db0000" points="475.111,224.15 563.561,238.521 477.238,223.558"/>
<polygon fill="#660000" points="561.434,239.114 561.434,245.817 563.561,245.224"/>
<polygon fill="#660000" points="561.434,239.114 563.561,245.224 563.561,238.521"/>
<polygon fill="#660000" points="556.039,244.882 561.434,245.817 561.434,239.114"/>
<polygon fill="#660000" points="556.039,244.882 561.434,239.114 475.111,224.15"/>
<polygon fill="#660000" points="475.111,224.15 475.111,230.853 480.506,231.788"/>
<polygon fill="#660000" points="556.039,244.882 475.111,224.15 480.506,231.788"/>
<polygon fill="#660000" points="556.039,244.882 480.506,231.788 480.506,332.326"/>
<polygon fill="#660000" points="556.039,244.882 480.506,332.326 556.039,345.419"/>
<polygon fill="#0000db" points="626.006,263.79 410.199,226.38 401.69,228.752"/>
<polygon fill="#0000db" points="626.006,263.79 401.69,228.752 617.498,266.162"/>
<polygon fill="#000066" points="626.006,344.22 626.006,263.79 617.498,266.162"/>
<polygon fill="#000066" points="626.006,344.22 617.498,266.162 617.498,346.592"/>
<polygon fill="#000066" points="617.498,346.592 617.498,266.162 401.69,228.752"/>
<polygon fill="#000066" points="617.498,346.592 401.69,228.752 401.69,309.183"/>
<polygon fill="#660000" points="545.063,247.942 545.063,348.479 547.19,347.887"/>
<polygon fill="#660000" points="545.063,247.942 547.19,347.887 547.19,247.349"/>
<polygon fill="#660000" points="550.458,242.175 550.458,248.877 552.585,248.284"/>
<polygon fill="#660000" points="550.458,242.175 552.585,248.284 552.585,241.582"/>
<polygon fill="#db0000" points="464.135,227.21 550.458,242.175 552.585,241.582"/>
<polygon fill="#db0000" points="464.135,227.21 552.585,241.582 466.263,226.618"/>
<polygon fill="#660000" points="545.063,247.942 550.458,248.877 550.458,242.175"/>
<polygon fill="#660000" points="545.063,247.942 550.458,242.175 464.135,227.21"/>
<polygon fill="#660000" points="464.135,227.21 464.135,233.913 469.531,234.849"/>
<polygon fill="#660000" points="545.063,247.942 464.135,227.21 469.531,234.849"/>
<polygon fill="#660000" points="545.063,247.942 469.531,234.849 469.531,335.386"/>
<polygon fill="#660000" points="545.063,247.942 469.531,335.386 545.063,348.479"/>
<polygon fill="#db00db" points="539.498,159.921 474.756,148.698 466.248,151.071"/>
<polygon fill="#db00db" points="539.498,159.921 466.248,151.071 530.99,162.293"/>
<polygon fill="#660066" points="539.498,428.022 539.498,159.921 530.99,162.293"/>
<polygon fill="#660066" points="539.498,428.022 530.99,162.293 530.99,430.394"/>
<polygon fill="#660066" points="530.99,430.394 530.99,162.293 466.248,151.071"/>
<polygon fill="#660066" points="530.99,430.394 466.248,151.071 466.248,419.171"/>
<polygon fill="#660000" points="534.088,251.002 534.088,351.54 536.215,350.947"/>
<polygon fill="#660000" points="534.088,251.002 536.215,350.947 536.215,250.409"/>
<polygon fill="#db0000" points="453.16,230.271 539.483,245.235 541.61,244.642"/>
<polygon fill="#db0000" points="453.16,230.271 541.61,244.642 455.287,229.678"/>
<polygon fill="#660000" points="539.483,245.235 539.483,251.938 541.61,251.344"/>
<polygon fill="#660000" points="539.483,245.235 541.61,251.344 541.61,244.642"/>
<polygon fill="#660000" points="534.088,251.002 539.483,251.938 539.483,245.235"/>
<polygon fill="#660000" points="534.088,251.002 539.483,245.235 453.16,230.271"/>
<polygon fill="#660000" points="453.16,230.271 453.16,236.973 458.555,237.909"/>
<polygon fill="#660000" points="534.088,251.002 453.16,230.271 458.555,237.909"/>
<polygon fill="#660000" points="534.088,251.002 458.555,237.909 458.555,338.446"/>
<polygon fill="#660000" points="534.088,251.002 458.555,338.446 534.088,351.54"/>
<polygon fill="#0000db" points="604.055,269.91 388.248,232.5 379.739,234.873"/>
<polygon fill="#0000db" points="604.055,269.91 379.739,234.873 595.547,272.282"/>
<polygon fill="#000066" points="604.055,350.34 604.055,269.91 595.547,272.282"/>
<polygon fill="#000066" points="604.055,350.34 595.547,272.282 595.547,352.712"/>
<polygon fill="#000066" points="595.547,352.712 595.547,272.282 379.739,234.873"/>
<polygon fill="#000066" points="595.547,352.712 379.739,234.873 379.739,315.303"/>
<polygon fill="#660000" points="523.112,254.062 523.112,354.6 525.239,354.007"/>
<polygon fill="#660000" points="523.112,254.062 525.239,354.007 525.239,253.469"/>
<polygon fill="#660000" points="528.507,248.295 528.507,254.998 530.634,254.404"/>
<polygon fill="#660000" points="528.507,248.295 530.634,254.404 530.634,247.702"/>
<polygon fill="#db0000" points="442.185,233.331 528.507,248.295 530.634,247.702"/>
<polygon fill="#db0000" points="442.185,233.331 530.634,247.702 444.312,232.738"/>
<polygon fill="#660000" points="523.112,254.062 528.507,254.998 528.507,248.295"/>
<polygon fill="#660000" points="523.112,254.062 528.507,248.295 442.185,233.331"/>
<polygon fill="#660000" points="442.185,233.331 442.185,240.034 447.58,240.969"/>
<polygon fill="#660000" points="523.112,254.062 442.185,233.331 447.58,240.969"/>
<polygon fill="#660000" points="523.112,254.062 447.58,240.969 447.58,341.506"/>
<polygon fill="#660000" points="523.112,254.062 447.58,341.506 523.112,354.6"/>
<polygon fill="#db00db" points="517.547,166.042 452.805,154.819 444.296,157.191"/>
<polygon fill="#db00db" points="517.547,166.042 444.296,157.191 509.039,168.414"/>
<polygon fill="#660066" points="517.547,434.143 517.547,166.042 509.039,168.414"/>
<polygon fill="#660066" points="517.547,434.143 509.039,168.414 509.039,436.515"/>
<polygon fill="#660066" points="509.039,436.515 509.039,168.414 444.296,157.191"/>
<polygon fill="#660066" points="509.039,436.515 444.296,157.191 444.296,425.292"/>
<polygon fill="#660000" points="512.137,257.123 512.137,357.66 514.264,357.067"/>
<polygon fill="#660000" points="512.137,257.123 514.264,357.067 514.264,256.529"/>
<polygon fill="#db0000" points="431.209,236.391 517.532,251.355 519.659,250.762"/>
<polygon fill="#db0000" points="431.209,236.391 519.659,250.762 433.336,235.798"/>
<polygon fill="#660000" points="517.532,251.355 517.532,258.058 519.659,257.464"/>
<polygon fill="#660000" points="517.532,251.355 519.659,257.464 519.659,250.762"/>
<polygon fill="#660000" points="512.137,257.123 517.532,258.058 517.532,251.355"/>
<polygon fill="#660000" points="512.137,257.123 517.532,251.355 431.209,236.391"/>
<polygon fill="#660000" points="431.209,236.391 431.209,243.094 436.604,244.029"/>
<polygon fill="#660000" points="512.137,257.123 431.209,236.391 436.604,244.029"/>
<polygon fill="#660000" points="512.137,257.123 436.604,244.029 436.604,344.567"/>
<polygon fill="#660000" points="512.137,257.123 436.604,344.567 512.137,357.66"/>
<polygon fill="#0000db" points="582.104,276.031 366.296,238.621 357.788,240.993"/>
<polygon fill="#0000db" points="582.104,276.031 357.788,240.993 573.596,278.403"/>
<polygon fill="#000066" points="582.104,356.461 582.104,276.031 573.596,278.403"/>
<polygon fill="#000066" points="582.104,356.461 573.596,278.403 573.596,358.833"/>
<polygon fill="#000066" points="573.596,358.833 573.596,278.403 357.788,240.993"/>
<polygon fill="#000066" points="573.596,358.833 357.788,240.993 357.788,321.423"/>
<polygon fill="#660000" points="501.161,260.183 501.161,360.72 503.288,360.127"/>
<polygon fill="#660000" points="501.161,260.183 503.288,360.127 503.288,259.589"/>
<polygon fill="#660000" points="506.556,254.415 506.556,261.118 508.684,260.525"/>
<polygon fill="#660000" points="506.556,254.415 508.684,260.525 508.684,253.822"/>
<polygon fill="#db0000" points="420.233,239.451 506.556,254.415 508.684,253.822"/>
<polygon fill="#db0000" points="420.233,239.451 508.684,253.822 422.36,238.858"/>
<polygon fill="#660000" points="501.161,260.183 506.556,261.118 506.556,254.415"/>
<polygon fill="#660000" points="501.161,260.183 506.556,254.415 420.233,239.451"/>
<polygon fill="#660000" points="420.233,239.451 420.233,246.154 425.628,247.089"/>
<polygon fill="#660000" points="501.161,260.183 420.233,239.451 425.628,247.089"/>
<polygon fill="#660000" points="501.161,260.183 425.628,247.089 425.628,347.627"/>
<polygon fill="#660000" points="501.161,260.183 425.628,347.627 501.161,360.72"/>
<polygon fill="#db00db" points="495.596,172.162 430.854,160.939 422.345,163.311"/>
<polygon fill="#db00db" points="495.596,172.162 422.345,163.311 487.087,174.534"/>
<polygon fill="#660066" points="495.596,440.263 495.596,172.162 487.087,174.534"/>
<polygon fill="#660066" points="495.596,440.263 487.087,174.534 487.087,442.635"/>
<polygon fill="#660066" points="487.087,442.635 487.087,174.534 422.345,163.311"/>
<polygon fill="#660066" points="487.087,442.635 422.345,163.311 422.345,431.412"/>
<polygon fill="#660000" points="490.186,263.243 490.186,363.78 492.312,363.188"/>
<polygon fill="#660000" points="490.186,263.243 492.312,363.188 492.312,262.65"/>
<polygon fill="#db0000" points="409.258,242.512 495.581,257.476 497.708,256.882"/>
<polygon fill="#db0000" points="409.258,242.512 497.708,256.882 411.385,241.918"/>
<polygon fill="#660000" points="495.581,257.476 495.581,264.178 497.708,263.585"/>
<polygon fill="#660000" points="495.581,257.476 497.708,263.585 497.708,256.882"/>
<polygon fill="#660000" points="490.186,263.243 495.581,264.178 495.581,257.476"/>
<polygon fill="#660000" points="490.186,263.243 495.581,257.476 409.258,242.512"/>
<polygon fill="#660000" points="409.258,242.512 409.258,249.214 414.653,250.149"/>
<polygon fill="#660000" points="490.186,263.243 409.258,242.512 414.653,250.149"/>
<polygon fill="#660000" points="490.186,263.243 414.653,250.149 414.653,350.687"/>
<polygon fill="#660000" points="490.186,263.243 414.653,350.687 490.186,363.78"/>
<polygon fill="#00db00" points="560.153,295.556 344.345,258.146 335.837,260.519"/>
<polygon fill="#00db00" points="560.153,295.556 335.837,260.519 551.645,297.928"/>
<polygon fill="#006600" points="560.153,349.176 560.153,295.556 551.645,297.928"/>
<polygon fill="#006600" points="560.153,349.176 551.645,297.928 551.645,351.548"/>
<polygon fill="#006600" points="551.645,351.548 551.645,297.928 335.837,260.519"/>
<polygon fill="#006600" points="551.645,351.548 335.837,260.519 335.837,314.139"/>
<polygon fill="#660000" points="479.21,266.303 479.21,366.841 481.337,366.248"/>
<polygon fill="#660000" points="479.21,266.303 481.337,366.248 481.337,265.71"/>
<polygon fill="#660000" points="484.605,260.536 484.605,267.238 486.732,266.645"/>
<polygon fill="#660000" points="484.605,260.536 486.732,266.645 486.732,259.942"/>
<polygon fill="#db0000" points="398.282,245.572 484.605,260.536 486.732,259.942"/>
<polygon fill="#db0000" points="398.282,245.572 486.732,259.942 400.409,244.979"/>
<polygon fill="#660000" points="479.21,266.303 484.605,267.238 484.605,260.536"/>
<polygon fill="#660000" points="479.21,266.303 484.605,260.536 398.282,245.572"/>
<polygon fill="#660000" points="398.282,245.572 398.282,252.274 403.677,253.209"/>
<polygon fill="#660000" points="479.21,266.303 398.282,245.572 403.677,253.209"/>
<polygon fill="#660000" points="479.21,266.303 403.677,253.209 403.677,353.747"/>
<polygon fill="#660000" points="479.21,266.303 403.677,353.747 479.21,366.841"/>
<polygon fill="#dbdb00" points="462.854,176.412 419.693,168.93 411.185,171.302"/>
<polygon fill="#dbdb00" points="462.854,176.412 411.185,171.302 454.346,178.784"/>
<polygon fill="#666600" points="462.854,444.513 462.854,176.412 454.346,178.784"/>
<polygon fill="#666600" points="462.854,444.513 454.346,178.784 454.346,446.885"/>
<polygon fill="#666600" points="454.346,446.885 454.346,178.784 411.185,171.302"/>
<polygon fill="#666600" points="454.346,446.885 411.185,171.302 411.185,439.403"/>
<polygon fill="#660000" points="468.234,269.363 468.234,369.901 470.362,369.308"/>
<polygon fill="#660000" points="468.234,269.363 470.362,369.308 470.362,268.77"/>
<polygon fill="#db0000" points="387.307,248.632 473.63,263.596 475.757,263.003"/>
<polygon fill="#db0000" points="387.307,248.632 475.757,263.003 389.434,248.039"/>
<polygon fill="#660000" points="473.63,263.596 473.63,270.298 475.757,269.705"/>
<polygon fill="#660000" points="473.63,263.596 475.757,269.705 475.757,263.003"/>
<polygon fill="#660000" points="468.234,269.363 392.702,256.27 392.702,356.808"/>
<polygon fill="#660000" points="468.234,269.363 392.702,356.808 468.234,369.901"/>
<polygon fill="#660000" points="468.234,269.363 473.63,263.596 387.307,248.632"/>
<polygon fill="#660000" points="387.307,248.632 387.307,255.334 392.702,256.27"/>
<polygon fill="#660000" points="468.234,269.363 387.307,248.632 392.702,256.27"/>
<polygon fill="#660000" points="468.234,269.363 473.63,270.298 473.63,263.596"/>
<polygon fill="#00db00" points="538.202,301.676 322.395,264.267 313.886,266.639"/>
<polygon fill="#00db00" points="538.202,301.676 313.886,266.639 529.694,304.048"/>
<polygon fill="#006600" points="538.202,355.296 538.202,301.676 529.694,304.048"/>
<polygon fill="#006600" points="538.202,355.296 529.694,304.048 529.694,357.668"/>
<polygon fill="#006600" points="529.694,357.668 529.694,304.048 313.886,266.639"/>
<polygon fill="#006600" points="529.694,357.668 313.886,266.639 313.886,320.259"/>
<polygon fill="#660000" points="457.259,272.423 457.259,372.961 459.386,372.368"/>
<polygon fill="#660000" points="457.259,272.423 459.386,372.368 459.386,271.83"/>
<polygon fill="#660000" points="462.654,266.656 462.654,273.358 464.781,272.766"/>
<polygon fill="#660000" points="462.654,266.656 464.781,272.766 464.781,266.063"/>
<polygon fill="#db0000" points="376.331,251.692 462.654,266.656 464.781,266.063"/>
<polygon fill="#db0000" points="376.331,251.692 464.781,266.063 378.458,251.099"/>
<polygon fill="#660000" points="457.259,272.423 381.727,259.33 381.727,359.868"/>
<polygon fill="#660000" points="457.259,272.423 381.727,359.868 457.259,372.961"/>
<polygon fill="#660000" points="457.259,272.423 462.654,273.358 462.654,266.656"/>
<polygon fill="#660000" points="457.259,272.423 462.654,266.656 376.331,251.692"/>
<polygon fill="#660000" points="376.331,251.692 376.331,258.395 381.727,259.33"/>
<polygon fill="#660000" points="457.259,272.423 376.331,251.692 381.727,259.33"/>
<polygon fill="#dbdb00" points="440.903,182.532 397.742,175.05 389.233,177.422"/>
<polygon fill="#dbdb00" points="440.903,182.532 389.233,177.422 432.395,184.904"/>
<polygon fill="#666600" points="440.903,450.633 440.903,182.532 432.395,184.904"/>
<polygon fill="#666600" points="440.903,450.633 432.395,184.904 432.395,453.005"/>
<polygon fill="#666600" points="432.395,453.005 432.395,184.904 389.233,177.422"/>
<polygon fill="#666600" points="432.395,453.005 389.233,177.422 389.233,445.523"/>
<polygon fill="#660000" points="446.284,275.483 446.284,376.021 448.411,375.428"/>
<polygon fill="#660000" points="446.284,275.483 448.411,375.428 448.411,274.89"/>
<polygon fill="#db0000" points="365.355,254.752 451.679,269.716 453.806,269.123"/>
<polygon fill="#db0000" points="365.355,254.752 453.806,269.123 367.483,254.159"/>
<polygon fill="#660000" points="451.679,269.716 451.679,276.418 453.806,275.826"/>
<polygon fill="#660000" points="451.679,269.716 453.806,275.826 453.806,269.123"/>
<polygon fill="#660000" points="446.284,275.483 451.679,276.418 451.679,269.716"/>
<polygon fill="#660000" points="446.284,275.483 451.679,269.716 365.355,254.752"/>
<polygon fill="#660000" points="365.355,254.752 365.355,261.455 370.751,262.39"/>
<polygon fill="#660000" points="446.284,275.483 365.355,254.752 370.751,262.39"/>
<polygon fill="#660000" points="446.284,275.483 370.751,262.39 370.751,362.928"/>
<polygon fill="#660000" points="446.284,275.483 370.751,362.928 446.284,376.021"/>
<polygon fill="#00db00" points="516.251,307.796 300.443,270.387 291.935,272.759"/>
<polygon fill="#00db00" points="516.251,307.796 291.935,272.759 507.743,310.169"/>
<polygon fill="#006600" points="516.251,361.417 516.251,307.796 507.743,310.169"/>
<polygon fill="#006600" points="516.251,361.417 507.743,310.169 507.743,363.789"/>
<polygon fill="#006600" points="507.743,363.789 507.743,310.169 291.935,272.759"/>
<polygon fill="#006600" points="507.743,363.789 291.935,272.759 291.935,326.379"/>
<polygon fill="#660000" points="435.308,278.543 435.308,379.082 437.435,378.488"/>
<polygon fill="#660000" points="435.308,278.543 437.435,378.488 437.435,277.951"/>
<polygon fill="#660000" points="440.703,272.776 440.703,279.479 442.83,278.886"/>
<polygon fill="#660000" points="440.703,272.776 442.83,278.886 442.83,272.183"/>
<polygon fill="#db0000" points="354.38,257.812 440.703,272.776 442.83,272.183"/>
<polygon fill="#db0000" points="354.38,257.812 442.83,272.183 356.507,257.219"/>
<polygon fill="#660000" points="435.308,278.543 440.703,279.479 440.703,272.776"/>
<polygon fill="#660000" points="435.308,278.543 440.703,272.776 354.38,257.812"/>
<polygon fill="#660000" points="354.38,257.812 354.38,264.515 359.775,265.45"/>
<polygon fill="#660000" points="435.308,278.543 354.38,257.812 359.775,265.45"/>
<polygon fill="#660000" points="435.308,278.543 359.775,265.45 359.775,365.988"/>
<polygon fill="#660000" points="435.308,278.543 359.775,365.988 435.308,379.082"/>
<polygon fill="#dbdb00" points="418.952,188.652 375.791,181.17 367.283,183.543"/>
<polygon fill="#dbdb00" points="418.952,188.652 367.283,183.543 410.444,191.025"/>
<polygon fill="#666600" points="418.952,456.753 418.952,188.652 410.444,191.025"/>
<polygon fill="#666600" points="418.952,456.753 410.444,191.025 410.444,459.125"/>
<polygon fill="#666600" points="410.444,459.125 410.444,191.025 367.283,183.543"/>
<polygon fill="#666600" points="410.444,459.125 367.283,183.543 367.283,451.644"/>
<polygon fill="#660000" points="424.333,281.604 424.333,382.142 426.459,381.548"/>
<polygon fill="#660000" points="424.333,281.604 426.459,381.548 426.459,281.011"/>
<polygon fill="#db0000" points="343.405,260.873 429.728,275.836 431.854,275.244"/>
<polygon fill="#db0000" points="343.405,260.873 431.854,275.244 345.532,260.279"/>
<polygon fill="#660000" points="429.728,275.836 429.728,282.539 431.854,281.946"/>
<polygon fill="#660000" points="429.728,275.836 431.854,281.946 431.854,275.244"/>
<polygon fill="#660000" points="424.333,281.604 429.728,282.539 429.728,275.836"/>
<polygon fill="#660000" points="424.333,281.604 429.728,275.836 343.405,260.873"/>
<polygon fill="#660000" points="343.405,260.873 343.405,267.575 348.8,268.51"/>
<polygon fill="#660000" points="424.333,281.604 343.405,260.873 348.8,268.51"/>
<polygon fill="#660000" points="424.333,281.604 348.8,268.51 348.8,369.048"/>
<polygon fill="#660000" points="424.333,281.604 348.8,369.048 424.333,382.142"/>
<polygon fill="#00db00" points="494.3,313.917 278.492,276.507 269.984,278.879"/>
<polygon fill="#00db00" points="494.3,313.917 269.984,278.879 485.792,316.289"/>
<polygon fill="#006600" points="494.3,367.537 494.3,313.917 485.792,316.289"/>
<polygon fill="#006600" points="494.3,367.537 485.792,316.289 485.792,369.909"/>
<polygon fill="#006600" points="485.792,369.909 485.792,316.289 269.984,278.879"/>
<polygon fill="#006600" points="485.792,369.909 269.984,278.879 269.984,332.5"/>
<polygon fill="#660000" points="413.357,284.664 413.357,385.202 415.484,384.608"/>
<polygon fill="#660000" points="413.357,284.664 415.484,384.608 415.484,284.071"/>
<polygon fill="#660000" points="418.752,278.896 418.752,285.599 420.879,285.006"/>
<polygon fill="#660000" points="418.752,278.896 420.879,285.006 420.879,278.304"/>
<polygon fill="#db0000" points="332.429,263.933 418.752,278.896 420.879,278.304"/>
<polygon fill="#db0000" points="332.429,263.933 420.879,278.304 334.556,263.34"/>
<polygon fill="#660000" points="413.357,284.664 418.752,285.599 418.752,278.896"/>
<polygon fill="#660000" points="413.357,284.664 418.752,278.896 332.429,263.933"/>
<polygon fill="#660000" points="332.429,263.933 332.429,270.635 337.824,271.57"/>
<polygon fill="#660000" points="413.357,284.664 332.429,263.933 337.824,271.57"/>
<polygon fill="#660000" points="413.357,284.664 337.824,271.57 337.824,372.108"/>
<polygon fill="#660000" points="413.357,284.664 337.824,372.108 413.357,385.202"/>
<polygon fill="#dbdb00" points="397.001,194.773 353.84,187.291 345.332,189.663"/>
<polygon fill="#dbdb00" points="397.001,194.773 345.332,189.663 388.493,197.145"/>
<polygon fill="#666600" points="397.001,462.874 397.001,194.773 388.493,197.145"/>
<polygon fill="#666600" points="397.001,462.874 388.493,197.145 388.493,465.246"/>
<polygon fill="#666600" points="388.493,465.246 388.493,197.145 345.332,189.663"/>
<polygon fill="#666600" points="388.493,465.246 345.332,189.663 345.332,457.764"/>
<polygon fill="#660000" points="402.381,287.724 402.381,388.262 404.508,387.669"/>
<polygon fill="#660000" points="402.381,287.724 404.508,387.669 404.508,287.131"/>
<polygon fill="#db0000" points="321.454,266.993 407.776,281.957 409.904,281.364"/>
<polygon fill="#db0000" points="321.454,266.993 409.904,281.364 323.581,266.4"/>
<polygon fill="#660000" points="407.776,281.957 407.776,288.659 409.904,288.066"/>
<polygon fill="#660000" points="407.776,281.957 409.904,288.066 409.904,281.364"/>
<polygon fill="#660000" points="402.381,287.724 407.776,288.659 407.776,281.957"/>
<polygon fill="#660000" points="402.381,287.724 407.776,281.957 321.454,266.993"/>
<polygon fill="#660000" points="321.454,266.993 321.454,273.695 326.849,274.631"/>
<polygon fill="#660000" points="402.381,287.724 321.454,266.993 326.849,274.631"/>
<polygon fill="#660000" points="402.381,287.724 326.849,274.631 326.849,375.168"/>
<polygon fill="#660000" points="402.381,287.724 326.849,375.168 402.381,388.262"/>
<polygon fill="#00db00" points="472.349,320.037 256.541,282.627 248.033,285"/>
<polygon fill="#00db00" points="472.349,320.037 248.033,285 463.84,322.41"/>
<polygon fill="#006600" points="472.349,373.657 472.349,320.037 463.84,322.41"/>
<polygon fill="#006600" points="472.349,373.657 463.84,322.41 463.84,376.03"/>
<polygon fill="#006600" points="463.84,376.03 463.84,322.41 248.033,285"/>
<polygon fill="#006600" points="463.84,376.03 248.033,285 248.033,338.62"/>
<polygon fill="#660000" points="391.406,290.784 391.406,391.322 393.533,390.729"/>
<polygon fill="#660000" points="391.406,290.784 393.533,390.729 393.533,290.191"/>
<polygon fill="#660000" points="396.801,285.017 396.801,291.72 398.928,291.126"/>
<polygon fill="#660000" points="396.801,285.017 398.928,291.126 398.928,284.424"/>
<polygon fill="#db0000" points="310.478,270.053 396.801,285.017 398.928,284.424"/>
<polygon fill="#db0000" points="310.478,270.053 398.928,284.424 312.605,269.46"/>
<polygon fill="#660000" points="391.406,290.784 396.801,291.72 396.801,285.017"/>
<polygon fill="#660000" points="391.406,290.784 396.801,285.017 310.478,270.053"/>
<polygon fill="#660000" points="310.478,270.053 310.478,276.755 315.873,277.691"/>
<polygon fill="#660000" points="391.406,290.784 310.478,270.053 315.873,277.691"/>
<polygon fill="#660000" points="391.406,290.784 315.873,277.691 315.873,378.229"/>
<polygon fill="#660000" points="391.406,290.784 315.873,378.229 391.406,391.322"/>
</g>
</svg>
