<?xml version="1.0" encoding="UTF-8" standalone="no"?>
<svg xmlns="http://www.w3.org/2000/svg"
     xmlns:xlink="http://www.w3.org/1999/xlink"
     width="920px" height="603px" viewBox="0 0 920 603">
<title>Geant4 output</title>
<desc>
Creator: GL2PS 1.3.5, (C) 1999-2009 C. Geuzaine
For: Geant4
CreationDate:
</desc>
<defs>
</defs>
<polygon fill="#000000" points="0,0 920,0 920,603 0,603"/>
<g shape-rendering="crispEdges">
<polygon fill="#0000db" points="674.236,253.149 387.801,203.496 383.284,204.755"/>
<polygon fill="#0000db" points="674.236,253.149 383.284,204.755 669.719,254.408"/>
<polygon fill="#000066" points="674.236,359.902 674.236,253.149 669.719,254.408"/>
<polygon fill="#000066" points="674.236,359.902 669.719,254.408 669.719,361.161"/>
<polygon fill="#000066" points="669.719,361.161 669.719,254.408 383.284,204.755"/>
<polygon fill="#000066" points="669.719,361.161 383.284,204.755 383.284,311.508"/>
<polygon fill="#660000" points="573.578,230.225 573.578,363.666 576.401,362.879"/>
<polygon fill="#660000" points="573.578,230.225 576.401,362.879 576.401,229.438"/>
<polygon fill="#660000" points="580.739,222.57 580.739,231.467 583.562,230.679"/>
<polygon fill="#660000" points="580.739,222.57 583.562,230.679 583.562,221.783"/>
<polygon fill="#db0000" points="466.165,202.709 580.739,222.57 583.562,221.783"/>
<polygon fill="#db0000" points="466.165,202.709 583.562,221.783 468.988,201.922"/>
<polygon fill="#660000" points="573.578,230.225 580.739,231.467 580.739,222.57"/>
<polygon fill="#660000" points="573.578,230.225 580.739,222.57 466.165,202.709"/>
<polygon fill="#660000" points="466.165,202.709 466.165,211.605 473.326,212.847"/>
<polygon fill="#660000" points="573.578,230.225 466.165,202.709 473.326,212.847"/>
<polygon fill="#660000" points="573.578,230.225 473.326,212.847 473.326,346.288"/>
<polygon fill="#660000" points="573.578,230.225 473.326,346.288 573.578,363.666"/>
<polygon fill="#db00db" points="566.191,113.398 480.261,98.502 475.744,99.7617"/>
<polygon fill="#db00db" points="566.191,113.398 475.744,99.7617 561.674,114.658"/>
<polygon fill="#660066" points="566.191,469.241 566.191,113.398 561.674,114.658"/>
<polygon fill="#660066" points="566.191,469.241 561.674,114.658 561.674,470.5"/>
<polygon fill="#660066" points="561.674,470.5 561.674,114.658 475.744,99.7617"/>
<polygon fill="#660066" points="561.674,470.5 475.744,99.7617 475.744,455.604"/>
<polygon fill="#660000" points="565.787,232.398 565.787,365.839 568.609,365.052"/>
<polygon fill="#660000" points="565.787,232.398 568.609,365.052 568.609,231.611"/>
<polygon fill="#db0000" points="458.373,204.882 572.947,224.743 575.771,223.956"/>
<polygon fill="#db0000" points="458.373,204.882 575.771,223.956 461.196,204.095"/>
<polygon fill="#660000" points="572.947,224.743 572.947,233.639 575.771,232.852"/>
<polygon fill="#660000" points="572.947,224.743 575.771,232.852 575.771,223.956"/>
<polygon fill="#660000" points="565.787,232.398 572.947,233.639 572.947,224.743"/>
<polygon fill="#660000" points="565.787,232.398 572.947,224.743 458.373,204.882"/>
<polygon fill="#660000" points="458.373,204.882 458.373,213.778 465.534,215.019"/>
<polygon fill="#660000" points="565.787,232.398 458.373,204.882 465.534,215.019"/>
<polygon fill="#660000" points="565.787,232.398 465.534,215.019 465.534,348.46"/>
<polygon fill="#660000" points="565.787,232.398 465.534,348.46 565.787,365.839"/>
<polygon fill="#0000db" points="658.652,257.494 372.217,207.841 367.7,209.101"/>
<polygon fill="#0000db" points="658.652,257.494 367.7,209.101 654.135,258.753"/>
<polygon fill="#000066" points="658.652,364.247 658.652,257.494 654.135,258.753"/>
<polygon fill="#000066" points="658.652,364.247 654.135,258.753 654.135,365.506"/>
<polygon fill="#000066" points="654.135,365.506 654.135,258.753 367.7,209.101"/>
<polygon fill="#000066" points="654.135,365.506 367.7,209.101 367.7,315.853"/>
<polygon fill="#660000" points="557.995,234.57 557.995,368.011 560.818,367.224"/>
<polygon fill="#660000" points="557.995,234.57 560.818,367.224 560.818,233.783"/>
<polygon fill="#660000" points="565.155,226.916 565.155,235.812 567.979,235.024"/>
<polygon fill="#660000" points="565.155,226.916 567.979,235.024 567.979,226.128"/>
<polygon fill="#db0000" points="450.581,207.054 565.155,226.916 567.979,226.128"/>
<polygon fill="#db0000" points="450.581,207.054 567.979,226.128 453.404,206.267"/>
<polygon fill="#660000" points="557.995,234.57 565.155,235.812 565.155,226.916"/>
<polygon fill="#660000" points="557.995,234.57 565.155,226.916 450.581,207.054"/>
<polygon fill="#660000" points="450.581,207.054 450.581,215.951 457.742,217.192"/>
<polygon fill="#660000" points="557.995,234.57 450.581,207.054 457.742,217.192"/>
<polygon fill="#660000" points="557.995,234.57 457.742,217.192 457.742,350.633"/>
<polygon fill="#660000" points="557.995,234.57 457.742,350.633 557.995,368.011"/>
<polygon fill="#db00db" points="550.608,117.743 464.677,102.847 460.16,104.106"/>
<polygon fill="#db00db" points="550.608,117.743 460.16,104.106 546.091,119.002"/>
<polygon fill="#660066" points="550.608,473.585 550.608,117.743 546.091,119.002"/>
<polygon fill="#660066" points="550.608,473.585 546.091,119.002 546.091,474.845"/>
<polygon fill="#660066" points="546.091,474.845 546.091,119.002 460.16,104.106"/>
<polygon fill="#660066" points="546.091,474.845 460.16,104.106 460.16,459.949"/>
<polygon fill="#660000" points="550.203,236.743 550.203,370.184 553.026,369.396"/>
<polygon fill="#660000" points="550.203,236.743 553.026,369.396 553.026,235.956"/>
<polygon fill="#db0000" points="442.789,209.227 557.363,229.088 560.187,228.301"/>
<polygon fill="#db0000" points="442.789,209.227 560.187,228.301 445.612,208.44"/>
<polygon fill="#660000" points="557.363,229.088 557.363,237.984 560.187,237.197"/>
<polygon fill="#660000" points="557.363,229.088 560.187,237.197 560.187,228.301"/>
<polygon fill="#660000" points="550.203,236.743 557.363,237.984 557.363,229.088"/>
<polygon fill="#660000" points="550.203,236.743 557.363,229.088 442.789,209.227"/>
<polygon fill="#660000" points="442.789,209.227 442.789,218.123 449.95,219.364"/>
<polygon fill="#660000" points="550.203,236.743 442.789,209.227 449.95,219.364"/>
<polygon fill="#660000" points="550.203,236.743 449.95,219.364 449.95,352.805"/>
<polygon fill="#660000" points="550.203,236.743 449.95,352.805 550.203,370.184"/>
<polygon fill="#0000db" points="643.068,261.839 356.633,212.186 352.116,213.445"/>
<polygon fill="#0000db" points="643.068,261.839 352.116,213.445 638.551,263.099"/>
<polygon fill="#000066" points="643.068,368.592 643.068,261.839 638.551,263.099"/>
<polygon fill="#000066" points="643.068,368.592 638.551,263.099 638.551,369.851"/>
<polygon fill="#000066" points="638.551,369.851 638.551,263.099 352.116,213.445"/>
<polygon fill="#000066" points="638.551,369.851 352.116,213.445 352.116,320.198"/>
<polygon fill="#660000" points="542.411,238.916 542.411,372.356 545.234,371.569"/>
<polygon fill="#660000" points="542.411,238.916 545.234,371.569 545.234,238.128"/>
<polygon fill="#660000" points="549.571,231.261 549.571,240.157 552.395,239.37"/>
<polygon fill="#660000" points="549.571,231.261 552.395,239.37 552.395,230.474"/>
<polygon fill="#db0000" points="434.998,211.399 549.571,231.261 552.395,230.474"/>
<polygon fill="#db0000" points="434.998,211.399 552.395,230.474 437.82,210.612"/>
<polygon fill="#660000" points="542.411,238.916 549.571,240.157 549.571,231.261"/>
<polygon fill="#660000" points="542.411,238.916 549.571,231.261 434.998,211.399"/>
<polygon fill="#660000" points="434.998,211.399 434.998,220.295 442.158,221.537"/>
<polygon fill="#660000" points="542.411,238.916 434.998,211.399 442.158,221.537"/>
<polygon fill="#660000" points="542.411,238.916 442.158,221.537 442.158,354.978"/>
<polygon fill="#660000" points="542.411,238.916 442.158,354.978 542.411,372.356"/>
<polygon fill="#db00db" points="535.024,122.088 449.093,107.192 444.576,108.452"/>
<polygon fill="#db00db" points="535.024,122.088 444.576,108.452 530.507,123.348"/>
<polygon fill="#660066" points="535.024,477.931 535.024,122.088 530.507,123.348"/>
<polygon fill="#660066" points="535.024,477.931 530.507,123.348 530.507,479.19"/>
<polygon fill="#660066" points="530.507,479.19 530.507,123.348 444.576,108.452"/>
<polygon fill="#660066" points="530.507,479.19 444.576,108.452 444.576,464.294"/>
<polygon fill="#660000" points="534.619,241.088 534.619,374.529 537.442,373.742"/>
<polygon fill="#660000" points="534.619,241.088 537.442,373.742 537.442,240.301"/>
<polygon fill="#db0000" points="427.206,213.572 541.78,233.433 544.603,232.646"/>
<polygon fill="#db0000" points="427.206,213.572 544.603,232.646 430.029,212.785"/>
<polygon fill="#660000" points="541.78,233.433 541.78,242.329 544.603,241.542"/>
<polygon fill="#660000" points="541.78,233.433 544.603,241.542 544.603,232.646"/>
<polygon fill="#660000" points="534.619,241.088 541.78,242.329 541.78,233.433"/>
<polygon fill="#660000" points="534.619,241.088 541.78,233.433 427.206,213.572"/>
<polygon fill="#660000" points="427.206,213.572 427.206,222.468 434.366,223.709"/>
<polygon fill="#660000" points="534.619,241.088 427.206,213.572 434.366,223.709"/>
<polygon fill="#660000" points="534.619,241.088 434.366,223.709 434.366,357.15"/>
<polygon fill="#660000" points="534.619,241.088 434.366,357.15 534.619,374.529"/>
<polygon fill="#0000db" points="627.484,266.184 341.049,216.531 336.532,217.791"/>
<polygon fill="#0000db" points="627.484,266.184 336.532,217.791 622.967,267.443"/>
<polygon fill="#000066" points="627.484,372.937 627.484,266.184 622.967,267.443"/>
<polygon fill="#000066" points="627.484,372.937 622.967,267.443 622.967,374.196"/>
<polygon fill="#000066" points="622.967,374.196 622.967,267.443 336.532,217.791"/>
<polygon fill="#000066" points="622.967,374.196 336.532,217.791 336.532,324.543"/>
<polygon fill="#660000" points="526.827,243.26 526.827,376.701 529.65,375.914"/>
<polygon fill="#660000" points="526.827,243.26 529.65,375.914 529.65,242.473"/>
<polygon fill="#660000" points="533.988,235.605 533.988,244.502 536.811,243.714"/>
<polygon fill="#660000" points="533.988,235.605 536.811,243.714 536.811,234.818"/>
<polygon fill="#db0000" points="419.414,215.745 533.988,235.605 536.811,234.818"/>
<polygon fill="#db0000" points="419.414,215.745 536.811,234.818 422.237,214.958"/>
<polygon fill="#660000" points="526.827,243.26 533.988,244.502 533.988,235.605"/>
<polygon fill="#660000" points="526.827,243.26 533.988,235.605 419.414,215.745"/>
<polygon fill="#660000" points="419.414,215.745 419.414,224.641 426.574,225.882"/>
<polygon fill="#660000" points="526.827,243.26 419.414,215.745 426.574,225.882"/>
<polygon fill="#660000" points="526.827,243.26 426.574,225.882 426.574,359.323"/>
<polygon fill="#660000" points="526.827,243.26 426.574,359.323 526.827,376.701"/>
<polygon fill="#db00db" points="519.44,126.433 433.509,111.537 428.992,112.797"/>
<polygon fill="#db00db" points="519.44,126.433 428.992,112.797 514.923,127.693"/>
<polygon fill="#660066" points="519.44,482.276 519.44,126.433 514.923,127.693"/>
<polygon fill="#660066" points="519.44,482.276 514.923,127.693 514.923,483.535"/>
<polygon fill="#660066" points="514.923,483.535 514.923,127.693 428.992,112.797"/>
<polygon fill="#660066" points="514.923,483.535 428.992,112.797 428.992,468.639"/>
<polygon fill="#660000" points="519.035,245.433 519.035,378.874 521.858,378.087"/>
<polygon fill="#660000" points="519.035,245.433 521.858,378.087 521.858,244.646"/>
<polygon fill="#db0000" points="411.622,217.917 526.196,237.778 529.019,236.991"/>
<polygon fill="#db0000" points="411.622,217.917 529.019,236.991 414.445,217.13"/>
<polygon fill="#660000" points="526.196,237.778 526.196,246.674 529.019,245.887"/>
<polygon fill="#660000" points="526.196,237.778 529.019,245.887 529.019,236.991"/>
<polygon fill="#660000" points="519.035,245.433 526.196,246.674 526.196,237.778"/>
<polygon fill="#660000" points="519.035,245.433 526.196,237.778 411.622,217.917"/>
<polygon fill="#660000" points="411.622,217.917 411.622,226.813 418.782,228.054"/>
<polygon fill="#660000" points="519.035,245.433 411.622,217.917 418.782,228.054"/>
<polygon fill="#660000" points="519.035,245.433 418.782,228.054 418.782,361.496"/>
<polygon fill="#660000" points="519.035,245.433 418.782,361.496 519.035,378.874"/>
<polygon fill="#0000db" points="611.9,270.529 325.465,220.876 320.948,222.136"/>
<polygon fill="#0000db" points="611.9,270.529 320.948,222.136 607.383,271.789"/>
<polygon fill="#000066" points="611.9,377.282 611.9,270.529 607.383,271.789"/>
<polygon fill="#000066" points="611.9,377.282 607.383,271.789 607.383,378.542"/>
<polygon fill="#000066" points="607.383,378.542 607.383,271.789 320.948,222.136"/>
<polygon fill="#000066" points="607.383,378.542 320.948,222.136 320.948,328.888"/>
<polygon fill="#660000" points="511.243,247.605 511.243,381.046 514.066,380.259"/>
<polygon fill="#660000" points="511.243,247.605 514.066,380.259 514.066,246.818"/>
<polygon fill="#660000" points="518.404,239.951 518.404,248.847 521.227,248.06"/>
<polygon fill="#660000" points="518.404,239.951 521.227,248.06 521.227,239.164"/>
<polygon fill="#db0000" points="403.83,220.089 518.404,239.951 521.227,239.164"/>
<polygon fill="#db0000" points="403.83,220.089 521.227,239.164 406.653,219.302"/>
<polygon fill="#660000" points="511.243,247.605 518.404,248.847 518.404,239.951"/>
<polygon fill="#660000" points="511.243,247.605 518.404,239.951 403.83,220.089"/>
<polygon fill="#660000" points="403.83,220.089 403.83,228.986 410.991,230.227"/>
<polygon fill="#660000" points="511.243,247.605 403.83,220.089 410.991,230.227"/>
<polygon fill="#660000" points="511.243,247.605 410.991,230.227 410.991,363.668"/>
<polygon fill="#660000" points="511.243,247.605 410.991,363.668 511.243,381.046"/>
<polygon fill="#db00db" points="503.856,130.778 417.926,115.882 413.409,117.142"/>
<polygon fill="#db00db" points="503.856,130.778 413.409,117.142 499.339,132.038"/>
<polygon fill="#660066" points="503.856,486.621 503.856,130.778 499.339,132.038"/>
<polygon fill="#660066" points="503.856,486.621 499.339,132.038 499.339,487.88"/>
<polygon fill="#660066" points="499.339,487.88 499.339,132.038 413.409,117.142"/>
<polygon fill="#660066" points="499.339,487.88 413.409,117.142 413.409,472.984"/>
<polygon fill="#660000" points="503.451,249.778 503.451,383.219 506.274,382.432"/>
<polygon fill="#660000" points="503.451,249.778 506.274,382.432 506.274,248.991"/>
<polygon fill="#db0000" points="396.038,222.262 510.612,242.123 513.435,241.336"/>
<polygon fill="#db0000" points="396.038,222.262 513.435,241.336 398.861,221.475"/>
<polygon fill="#660000" points="510.612,242.123 510.612,251.02 513.435,250.232"/>
<polygon fill="#660000" points="510.612,242.123 513.435,250.232 513.435,241.336"/>
<polygon fill="#660000" points="503.451,249.778 510.612,251.02 510.612,242.123"/>
<polygon fill="#660000" points="503.451,249.778 510.612,242.123 396.038,222.262"/>
<polygon fill="#660000" points="396.038,222.262 396.038,231.158 403.199,232.399"/>
<polygon fill="#660000" points="503.451,249.778 396.038,222.262 403.199,232.399"/>
<polygon fill="#660000" points="503.451,249.778 403.199,232.399 403.199,365.84"/>
<polygon fill="#660000" points="503.451,249.778 403.199,365.84 503.451,383.219"/>
<polygon fill="#00db00" points="596.316,292.667 309.881,243.013 305.364,244.273"/>
<polygon fill="#00db00" points="596.316,292.667 305.364,244.273 591.8,293.926"/>
<polygon fill="#006600" points="596.316,363.835 596.316,292.667 591.8,293.926"/>
<polygon fill="#006600" points="596.316,363.835 591.8,293.926 591.8,365.094"/>
<polygon fill="#006600" points="591.8,365.094 591.8,293.926 305.364,244.273"/>
<polygon fill="#006600" points="591.8,365.094 305.364,244.273 305.364,315.441"/>
<polygon fill="#660000" points="495.659,251.951 495.659,385.392 498.482,384.604"/>
<polygon fill="#660000" points="495.659,251.951 498.482,384.604 498.482,251.164"/>
<polygon fill="#660000" points="502.82,244.296 502.82,253.192 505.643,252.405"/>
<polygon fill="#660000" points="502.82,244.296 505.643,252.405 505.643,243.509"/>
<polygon fill="#db0000" points="388.246,224.435 502.82,244.296 505.643,243.509"/>
<polygon fill="#db0000" points="388.246,224.435 505.643,243.509 391.069,223.647"/>
<polygon fill="#660000" points="495.659,251.951 502.82,253.192 502.82,244.296"/>
<polygon fill="#660000" points="495.659,251.951 502.82,244.296 388.246,224.435"/>
<polygon fill="#660000" points="388.246,224.435 388.246,233.331 395.407,234.572"/>
<polygon fill="#660000" points="495.659,251.951 388.246,224.435 395.407,234.572"/>
<polygon fill="#660000" points="495.659,251.951 395.407,234.572 395.407,368.013"/>
<polygon fill="#660000" points="495.659,251.951 395.407,368.013 495.659,385.392"/>
<polygon fill="#dbdb00" points="473.951,132.641 416.664,122.71 412.146,123.97"/>
<polygon fill="#dbdb00" points="473.951,132.641 412.146,123.97 469.434,133.9"/>
<polygon fill="#666600" points="473.951,488.483 473.951,132.641 469.434,133.9"/>
<polygon fill="#666600" points="473.951,488.483 469.434,133.9 469.434,489.743"/>
<polygon fill="#666600" points="469.434,489.743 469.434,133.9 412.146,123.97"/>
<polygon fill="#666600" points="469.434,489.743 412.146,123.97 412.146,479.812"/>
<polygon fill="#660000" points="487.867,254.123 487.867,387.564 490.69,386.777"/>
<polygon fill="#660000" points="487.867,254.123 490.69,386.777 490.69,253.336"/>
<polygon fill="#db0000" points="380.454,226.607 495.028,246.468 497.851,245.681"/>
<polygon fill="#db0000" points="380.454,226.607 497.851,245.681 383.277,225.82"/>
<polygon fill="#660000" points="495.028,246.468 495.028,255.364 497.851,254.577"/>
<polygon fill="#660000" points="495.028,246.468 497.851,254.577 497.851,245.681"/>
<polygon fill="#660000" points="487.867,254.123 495.028,255.364 495.028,246.468"/>
<polygon fill="#660000" points="487.867,254.123 495.028,246.468 380.454,226.607"/>
<polygon fill="#660000" points="380.454,226.607 380.454,235.503 387.615,236.745"/>
<polygon fill="#660000" points="487.867,254.123 380.454,226.607 387.615,236.745"/>
<polygon fill="#660000" points="487.867,254.123 387.615,236.745 387.615,370.186"/>
<polygon fill="#660000" points="487.867,254.123 387.615,370.186 487.867,387.564"/>
<polygon fill="#00db00" points="580.733,297.011 294.297,247.358 289.78,248.618"/>
<polygon fill="#00db00" points="580.733,297.011 289.78,248.618 576.216,298.271"/>
<polygon fill="#006600" points="580.733,368.18 580.733,297.011 576.216,298.271"/>
<polygon fill="#006600" points="580.733,368.18 576.216,298.271 576.216,369.439"/>
<polygon fill="#006600" points="576.216,369.439 576.216,298.271 289.78,248.618"/>
<polygon fill="#006600" points="576.216,369.439 289.78,248.618 289.78,319.787"/>
<polygon fill="#660000" points="480.075,256.295 480.075,389.736 482.898,388.949"/>
<polygon fill="#660000" points="480.075,256.295 482.898,388.949 482.898,255.508"/>
<polygon fill="#660000" points="487.236,248.641 487.236,257.537 490.059,256.75"/>
<polygon fill="#660000" points="487.236,248.641 490.059,256.75 490.059,247.854"/>
<polygon fill="#db0000" points="372.662,228.78 487.236,248.641 490.059,247.854"/>
<polygon fill="#db0000" points="372.662,228.78 490.059,247.854 375.485,227.993"/>
<polygon fill="#660000" points="480.075,256.295 487.236,257.537 487.236,248.641"/>
<polygon fill="#660000" points="480.075,256.295 487.236,248.641 372.662,228.78"/>
<polygon fill="#660000" points="372.662,228.78 372.662,237.676 379.823,238.917"/>
<polygon fill="#660000" points="480.075,256.295 372.662,228.78 379.823,238.917"/>
<polygon fill="#660000" points="480.075,256.295 379.823,238.917 379.823,372.358"/>
<polygon fill="#660000" points="480.075,256.295 379.823,372.358 480.075,389.736"/>
<polygon fill="#dbdb00" points="458.367,136.986 401.08,127.055 396.562,128.314"/>
<polygon fill="#dbdb00" points="458.367,136.986 396.562,128.314 453.85,138.245"/>
<polygon fill="#666600" points="458.367,492.828 458.367,136.986 453.85,138.245"/>
<polygon fill="#666600" points="458.367,492.828 453.85,138.245 453.85,494.088"/>
<polygon fill="#666600" points="453.85,494.088 453.85,138.245 396.562,128.314"/>
<polygon fill="#666600" points="453.85,494.088 396.562,128.314 396.562,484.157"/>
<polygon fill="#660000" points="472.283,258.468 472.283,391.909 475.106,391.122"/>
<polygon fill="#660000" points="472.283,258.468 475.106,391.122 475.106,257.681"/>
<polygon fill="#db0000" points="364.87,230.952 479.444,250.813 482.267,250.026"/>
<polygon fill="#db0000" points="364.87,230.952 482.267,250.026 367.693,230.165"/>
<polygon fill="#660000" points="479.444,250.813 479.444,259.709 482.267,258.922"/>
<polygon fill="#660000" points="479.444,250.813 482.267,258.922 482.267,250.026"/>
<polygon fill="#660000" points="472.283,258.468 479.444,259.709 479.444,250.813"/>
<polygon fill="#660000" points="472.283,258.468 479.444,250.813 364.87,230.952"/>
<polygon fill="#660000" points="364.87,230.952 364.87,239.848 372.031,241.089"/>
<polygon fill="#660000" points="472.283,258.468 364.87,230.952 372.031,241.089"/>
<polygon fill="#660000" points="472.283,258.468 372.031,241.089 372.031,374.531"/>
<polygon fill="#660000" points="472.283,258.468 372.031,374.531 472.283,391.909"/>
<polygon fill="#00db00" points="565.149,301.356 278.713,251.704 274.196,252.963"/>
<polygon fill="#00db00" points="565.149,301.356 274.196,252.963 560.632,302.616"/>
<polygon fill="#006600" points="565.149,372.525 565.149,301.356 560.632,302.616"/>
<polygon fill="#006600" points="565.149,372.525 560.632,302.616 560.632,373.784"/>
<polygon fill="#006600" points="560.632,373.784 560.632,302.616 274.196,252.963"/>
<polygon fill="#006600" points="560.632,373.784 274.196,252.963 274.196,324.131"/>
<polygon fill="#660000" points="464.491,260.641 464.491,394.082 467.314,393.294"/>
<polygon fill="#660000" points="464.491,260.641 467.314,393.294 467.314,259.854"/>
<polygon fill="#660000" points="471.652,252.986 471.652,261.882 474.476,261.095"/>
<polygon fill="#660000" points="471.652,252.986 474.476,261.095 474.476,252.199"/>
<polygon fill="#db0000" points="357.078,233.125 471.652,252.986 474.476,252.199"/>
<polygon fill="#db0000" points="357.078,233.125 474.476,252.199 359.901,232.337"/>
<polygon fill="#660000" points="464.491,260.641 471.652,261.882 471.652,252.986"/>
<polygon fill="#660000" points="464.491,260.641 471.652,252.986 357.078,233.125"/>
<polygon fill="#660000" points="357.078,233.125 357.078,242.021 364.239,243.262"/>
<polygon fill="#660000" points="464.491,260.641 357.078,233.125 364.239,243.262"/>
<polygon fill="#660000" points="464.491,260.641 364.239,243.262 364.239,376.703"/>
<polygon fill="#660000" points="464.491,260.641 364.239,376.703 464.491,394.082"/>
<polygon fill="#dbdb00" points="442.783,141.331 385.496,131.4 380.979,132.66"/>
<polygon fill="#dbdb00" points="442.783,141.331 380.979,132.66 438.266,142.59"/>
<polygon fill="#666600" points="442.783,497.173 442.783,141.331 438.266,142.59"/>
<polygon fill="#666600" points="442.783,497.173 438.266,142.59 438.266,498.433"/>
<polygon fill="#666600" points="438.266,498.433 438.266,142.59 380.979,132.66"/>
<polygon fill="#666600" points="438.266,498.433 380.979,132.66 380.979,488.502"/>
<polygon fill="#660000" points="456.699,262.813 456.699,396.254 459.522,395.467"/>
<polygon fill="#660000" points="456.699,262.813 459.522,395.467 459.522,262.026"/>
<polygon fill="#db0000" points="349.286,235.297 463.86,255.158 466.684,254.371"/>
<polygon fill="#db0000" points="349.286,235.297 466.684,254.371 352.109,234.51"/>
<polygon fill="#660000" points="463.86,255.158 463.86,264.055 466.684,263.267"/>
<polygon fill="#660000" points="463.86,255.158 466.684,263.267 466.684,254.371"/>
<polygon fill="#660000" points="456.699,262.813 463.86,264.055 463.86,255.158"/>
<polygon fill="#660000" points="456.699,262.813 463.86,255.158 349.286,235.297"/>
<polygon fill="#660000" points="349.286,235.297 349.286,244.193 356.447,245.435"/>
<polygon fill="#660000" points="456.699,262.813 349.286,235.297 356.447,245.435"/>
<polygon fill="#660000" points="456.699,262.813 356.447,245.435 356.447,378.875"/>
<polygon fill="#660000" points="456.699,262.813 356.447,378.875 456.699,396.254"/>
<polygon fill="#00db00" points="549.565,305.702 263.13,256.048 258.613,257.308"/>
<polygon fill="#00db00" points="549.565,305.702 258.613,257.308 545.048,306.961"/>
<polygon fill="#006600" points="549.565,376.87 549.565,305.702 545.048,306.961"/>
<polygon fill="#006600" points="549.565,376.87 545.048,306.961 545.048,378.129"/>
<polygon fill="#006600" points="545.048,378.129 545.048,306.961 258.613,257.308"/>
<polygon fill="#006600" points="545.048,378.129 258.613,257.308 258.613,328.477"/>
<polygon fill="#660000" points="448.907,264.986 448.907,398.427 451.73,397.64"/>
<polygon fill="#660000" points="448.907,264.986 451.73,397.64 451.73,264.199"/>
<polygon fill="#660000" points="456.068,257.331 456.068,266.227 458.892,265.44"/>
<polygon fill="#660000" points="456.068,257.331 458.892,265.44 458.892,256.544"/>
<polygon fill="#db0000" points="341.494,237.47 456.068,257.331 458.892,256.544"/>
<polygon fill="#db0000" points="341.494,237.47 458.892,256.544 344.317,236.683"/>
<polygon fill="#660000" points="448.907,264.986 456.068,266.227 456.068,257.331"/>
<polygon fill="#660000" points="448.907,264.986 456.068,257.331 341.494,237.47"/>
<polygon fill="#660000" points="341.494,237.47 341.494,246.366 348.655,247.607"/>
<polygon fill="#660000" points="448.907,264.986 341.494,237.47 348.655,247.607"/>
<polygon fill="#660000" points="448.907,264.986 348.655,247.607 348.655,381.048"/>
<polygon fill="#660000" points="448.907,264.986 348.655,381.048 448.907,398.427"/>
<polygon fill="#dbdb00" points="427.199,145.676 369.912,135.745 365.395,137.005"/>
<polygon fill="#dbdb00" points="427.199,145.676 365.395,137.005 422.682,146.935"/>
<polygon fill="#666600" points="427.199,501.519 427.199,145.676 422.682,146.935"/>
<polygon fill="#666600" points="427.199,501.519 422.682,146.935 422.682,502.778"/>
<polygon fill="#666600" points="422.682,502.778 422.682,146.935 365.395,137.005"/>
<polygon fill="#666600" points="422.682,502.778 365.395,137.005 365.395,492.847"/>
<polygon fill="#660000" points="441.116,267.158 441.116,400.599 443.938,399.812"/>
<polygon fill="#660000" points="441.116,267.158 443.938,399.812 443.938,266.371"/>
<polygon fill="#db0000" points="333.702,239.642 448.276,259.503 451.1,258.716"/>
<polygon fill="#db0000" points="333.702,239.642 451.1,258.716 336.525,238.855"/>
<polygon fill="#660000" points="448.276,259.503 448.276,268.399 451.1,267.612"/>
<polygon fill="#660000" points="448.276,259.503 451.1,267.612 451.1,258.716"/>
<polygon fill="#660000" points="441.116,267.158 448.276,268.399 448.276,259.503"/>
<polygon fill="#660000" points="441.116,267.158 448.276,259.503 333.702,239.642"/>
<polygon fill="#660000" points="333.702,239.642 333.702,248.538 340.863,249.78"/>
<polygon fill="#660000" points="441.116,267.158 333.702,239.642 340.863,249.78"/>
<polygon fill="#660000" points="441.116,267.158 340.863,249.78 340.863,383.221"/>
<polygon fill="#660000" points="441.116,267.158 340.863,383.221 441.116,400.599"/>
<polygon fill="#00db00" points="533.981,310.046 247.546,260.394 243.029,261.653"/>
<polygon fill="#00db00" points="533.981,310.046 243.029,261.653 529.464,311.306"/>
<polygon fill="#006600" points="533.981,381.215 533.981,310.046 529.464,311.306"/>
<polygon fill="#006600" points="533.981,381.215 529.464,311.306 529.464,382.475"/>
<polygon fill="#006600" points="529.464,382.475 529.464,311.306 243.029,261.653"/>
<polygon fill="#006600" points="529.464,382.475 243.029,261.653 243.029,332.822"/>
<polygon fill="#660000" points="433.324,269.331 433.324,402.771 436.147,401.984"/>
<polygon fill="#660000" points="433.324,269.331 436.147,401.984 436.147,268.543"/>
<polygon fill="#660000" points="440.484,261.676 440.484,270.572 443.308,269.785"/>
<polygon fill="#660000" points="440.484,261.676 443.308,269.785 443.308,260.889"/>
<polygon fill="#db0000" points="325.91,241.815 440.484,261.676 443.308,260.889"/>
<polygon fill="#db0000" points="325.91,241.815 443.308,260.889 328.733,241.028"/>
<polygon fill="#660000" points="433.324,269.331 440.484,270.572 440.484,261.676"/>
<polygon fill="#660000" points="433.324,269.331 440.484,261.676 325.91,241.815"/>
<polygon fill="#660000" points="325.91,241.815 325.91,250.711 333.071,251.952"/>
<polygon fill="#660000" points="433.324,269.331 325.91,241.815 333.071,251.952"/>
<polygon fill="#660000" points="433.324,269.331 333.071,251.952 333.071,385.393"/>
<polygon fill="#660000" points="433.324,269.331 333.071,385.393 433.324,402.771"/>
</g>
</svg>
